<svg preserveAspectRatio="xMidYMid meet" data-bbox="249.119 233.613 646.731 615.882" viewBox="249.119 233.613 646.731 615.882" xmlns="http://www.w3.org/2000/svg" data-type="shape" role="presentation" aria-hidden="true" aria-label="">
    <g>
        <path d="M757.19 349.57H596.9V418c0 3.43-9.91 10.71-14.13 9.29-43.02-3.61-93.56 4.66-135.68-.04-3.73-.42-12.94-4.06-12.94-8.02v-69.66H273.86v419.22h347.09c.36 0 5.42 3.03 6.1 3.76 5.33 5.72 3.76 16.41-3.34 19.96H255.68c-3.92-2.29-6.84-5.94-6.54-10.72l.12-447.57c19.3-28.99 36.81-63.97 57.6-91.59 3.83-5.09 7.37-9.21 14.42-9.01l392.79.63c5.06 1.59 6.97 4.73 9.86 8.64 20.78 28.16 38.7 63.01 57.84 92.58v225.48c-2.51 16.42-24.58 9.95-24.58 2.55zm-300.85-91.25h-130.7l-41.92 66.58H436zm110.97 66.59-20.94-65.99-62.98-.05-20.89 66.04zm178.79 0-42.54-66.58H573.48l19.73 66.58zm-173.86 24.66H458.8v53.02h111.59l1.85-1.85z"></path>
        <path d="M756.95 597.77c99.85-8.9 170.97 95.22 124.19 184.61-45.01 86-168.94 90.35-219.4 7.27-48.12-79.23 2.68-183.63 95.21-191.88m2.46 24.66c-81.01 7.54-120.06 104.33-67.53 166.67 43.48 51.6 125.78 46.54 162.48-10.06 46.39-71.52-10.6-164.46-94.95-156.6Z"></path>
        <path d="M707 702.55c3.64-4.39 12.38-5.2 17.36-2.65 6.19 3.16 23.1 32.91 26.04 32.91l67.16-48.54c13.35-4.11 20.2 14.71 10.33 22.66-24.38 14.28-48.69 39.64-72.76 53-6.53 3.63-12.02 3.98-17.66-1.62s-26.61-35.02-30.59-42.15c-2.56-4.58-3.66-9.04.13-13.61Z"></path>
    </g>
</svg>