<svg preserveAspectRatio="xMidYMid meet" data-bbox="203.911 286.3 695.719 490.388" viewBox="203.911 286.3 695.719 490.388" xmlns="http://www.w3.org/2000/svg" data-type="shape" role="presentation" aria-hidden="true" aria-label="">
    <g>
        <path d="M664.96 286.3c-2.25 5.57 5.35 11.99 5.35 13.37v98.93h131.01c25.1 30.51 32.86 75.68 47.98 112.45 8.5 12.19 40.64-1.65 48.58 10.24l1.75 189.51c-4.17 14.51-25.28 5.39-30.88 9.23-1.42.97-8.49 24.22-14.09 31.37-25.57 32.68-82.12 33.52-109.68 3-6.79-7.52-15.45-34.67-19.1-35.22H438.24c-23.31 73.11-127.11 80.07-142.27.27h-82.89l-8.02-8.02V607.15c42.5-19.45 22.83 45 26.64 72.29 3.06 21.92 38.39 11.69 55.57 12.59 10.29-3.14 14.91-29.22 24.98-39.19 40.01-39.59 115.88-16.98 122.76 39.87h203.21V313.04H231.81v26.75c-36.96 14.69-30.41-53.49-18.72-53.49zm32.09 144.38h-26.74v262.03l53.69-2.45c23.67-59.16 90.83-82.33 133.53-27.03l15.98 24.13V551l-8.02-8.02H705.06l-8.02-8.02V430.68Zm26.73 0v85.56h96.26l-27.02-85.28-69.23-.28ZM396.21 672.67c-20.86-22.87-65.44-12.76-72.45 18.36-16.63 73.91 91.54 70.58 84.6 9.98-.59-5.18-8.89-24.77-12.15-28.34m390.08-11.04c-51.77 11.64-35.42 103.18 30.21 83.68 5.08-1.51 22.51-18.95 24.04-24.04 10.93-36.31-17.28-67.95-54.25-59.64"></path>
        <path d="M213.1 371.86h331.55c10.05 0 10.05 26.74 0 26.74H213.1c-8.01 0-12.53-21.71 0-26.74"></path>
        <path d="M213.1 430.68h272.72c10.05 0 10.05 26.74 0 26.74H213.1c-8.01 0-12.53-21.71 0-26.74"></path>
        <path d="M435.02 489.5c1.72 7.16-.84 26.74-8.02 26.74H213.1c-10.05 0-10.05-26.74 0-26.74z"></path>
        <path d="M213.1 575.06c-16.04-4.19-8.89-29.63 15.78-32.35 27.7-3.05 106.37-3.17 132.83 1.53 26.87 4.77 11.97 30.83 6.48 30.83H213.11Z"></path>
    </g>
</svg>