<svg preserveAspectRatio="xMidYMid meet" data-bbox="168.75 283.78 746.801 543.97" viewBox="168.75 283.78 746.801 543.97" xmlns="http://www.w3.org/2000/svg" data-type="shape" role="presentation" aria-hidden="true" aria-label="">
    <g>
        <path d="M759.77 283.79v36.91h51.48c.63 0 1.14 1.71 1.94 1.94 1.26.36 2.83-.42 3.89 0 .76.3 1.14 1.57 1.94 1.94.6.28 1.52-.25 1.94 0 .96.57 4.21 3.85 4.86 4.86.28.44-.3 1.44 0 1.94 2.86 4.8 5.03 7.32 3.89 13.6-.13.72-1.72 1.15-1.94 1.94-.35 1.25.4 2.79 0 3.89-1.92 5.23-7.48 12.14-9.71 17.48-.46 1.09.44 2.75 0 3.89-1.18 3.02-5.24 6-3.89 10.69h47.6c1.47 0 6.38 5.05 7.77 5.83.92.51 2.55-.36 2.91 0 .34.34-.44 1.87 0 2.91.48 1.15 3.73 5.12 3.89 5.83.4 1.87.35 7.72 0 9.71-.13.71-1.69 1.14-1.94 1.94-.37 1.16.35 2.67 0 3.89-.21.71-6.49 9.72-7.77 11.66-2.18 3.31-5.92 6.76-7.77 10.69h39.83c.63 0 1.14 1.71 1.94 1.94 1.26.36 2.83-.42 3.89 0 .76.3 1.14 1.57 1.94 1.94 1.43.67 3.11.19 4.86 2.91.27.42-.3 1.41 0 1.94.7 1.25 3.74 5.17 3.89 5.83.45 2.1.46 11.53 0 13.6-.15.69-1.56 1.1-1.94 1.94-.27.6.25 1.52 0 1.94-2.58 4.33-11.57 10.91-15.54 15.54-50.04 58.29-97.83 157.06-120.45 229.25-5.99 19.12-15.42 46.09-17.48 66.05-1.61 15.63 1.19 33.63 0 49.54H301.31v-78.68l25.26-24.28v75.77h407.98V313.9c0-.21-2.71-2.91-2.91-2.91H326.57v109.77c-1.06.81-1.88 2.25-2.91 2.91-.84.54-4.91 1.39-5.83 1.94-3.37 2.05-7.55 6.13-10.69 8.74-1.97 1.64-2.5 3.71-5.83 2.91V283.78H759.8Zm44.68 60.23h-44.68v176.79l1.94-12.63c.09-.71 1.83-1.21 1.94-1.94 7.95-52.75 16.47-105.75 36.91-155.42.49-1.18 4.49-6.3 3.89-6.8m44.68 62.17h-42.74c1.05 3.19-1.64 3.84-1.94 4.86-.47 1.6.45 4.17 0 5.83-13.86 50.7-20.64 104.39-29.14 157.36l1.94 10.69 1.94-10.69c17.35-51.45 35.13-108.19 64.11-157.36 1.1-1.87 7.28-9.38 5.83-10.69m38.86 52.45h-39.83c-3.67 3.17-4.8 8.28-6.8 12.63-18.58 40.33-30.66 81.78-44.68 122.39v10.69c-.02-4.09 3.95-7.14 5.83-10.69 21.09-39.83 44.07-84.32 73.83-120.45 1.77-2.14 14.09-12.34 11.66-14.57ZM774.34 588.81c-1.26 0-1.26 1.94 0 1.94s1.26-1.94 0-1.94"></path>
        <path d="M391.61 419.79C513.35 407.22 593.07 537 530.52 640.29c-14.1 20.56-30.12 35.49-51.48 47.6-9.95 5.63-20.96 11.01-31.08 13.6-30.4 7.77-65.85 5.06-95.2-5.83l-17.48-9.71-110.74 110.74c-2.7-1.09-4.32 3.45-5.83 3.89-1.22.35-2.73-.37-3.89 0-.81.26-1.23 1.82-1.94 1.94-3.24.58-18.39.66-21.37 0-.71-.16-1.12-1.61-1.94-1.94-1.3-.52-5.02-1.41-5.83-1.94-1.6-1.06-9.81-9.21-10.69-10.69-.25-.42.28-1.35 0-1.94-.37-.8-1.64-1.18-1.94-1.94-.42-1.05.36-2.63 0-3.89-.23-.79-1.81-1.22-1.94-1.94-.56-3.16-.56-14.33 0-17.48.13-.72 1.72-1.15 1.94-1.94.64-2.23.65-5.3 1.94-7.77l112.68-112.68c1.37-4.76-2.54-5.3-3.89-7.77-5.78-10.63-11.23-26.2-13.6-36.91-2.51-11.38-3.48-38.03-1.94-50.51.17-1.34 1.4-7.11 1.94-9.71 11.4-54.62 54.75-98.25 109.77-109.77 2.89-.6 11.1-3.63 13.6-3.89Zm3.89 29.14c-.7.07-1.21 1.83-1.94 1.94-5.37.81-10.07.28-15.54 1.94-9.58 2.92-20.01 8.27-29.14 13.6-41.11 24.85-62.26 76.2-51.48 123.37 1.98 8.67 7.14 18.61 11.66 27.2 1.88 3.58 4.85 7.55 5.83 11.66 83.12 107.86 246.21 18.67 200.1-108.79-19.8-46.66-69.37-76.08-119.48-70.91Z"></path>
        <path d="M385.78 365.39h289.47c.34 0 4.77 4.53 4.86 4.86.36 1.3.36 8.41 0 9.71-.09.33-4.51 4.86-4.86 4.86H385.78c-.34 0-4.77-4.53-4.86-4.86-1.48-5.38.14-11.52 4.86-14.57"></path>
        <path d="M385.78 726.74h289.47c.34 0 4.77 4.53 4.86 4.86.36 1.3.36 8.41 0 9.71-.09.33-4.51 4.86-4.86 4.86H385.78c-.34 0-4.77-4.53-4.86-4.86-1.48-5.38.14-11.52 4.86-14.57"></path>
        <path d="M532.46 456.7c-.36-.36.51-2 0-2.91-2.83-5.08-12.85-10.43-15.54-16.51h158.34c.34 0 4.77 4.53 4.86 4.86.36 1.3.36 8.41 0 9.71-.09.33-4.51 4.86-4.86 4.86H532.47Z"></path>
        <path d="M532.46 674.29v-2.91l11.66-13.6c.45-.8-.28-2.91 0-2.91h131.14c.34 0 4.77 4.53 4.86 4.86.36 1.3.36 8.41 0 9.71-.09.33-4.51 4.86-4.86 4.86H532.47Z"></path>
        <path d="M673.31 509.15c.61.13 6.56 3.96 6.8 4.86.42 1.54.33 7.86 0 9.71-.12.68-1.59 1.1-1.94 1.94-.44 1.05.34 2.57 0 2.91-.48.48-5.53-1.09-6.8 1.94h-99.08l-2.91-2.91c.85-6.51-4.17-11.65-3.89-18.46h107.82Z"></path>
        <path d="M569.38 602.41c.26-2.17-.41-4.81 0-6.8.16-.76 1.83-1.22 1.94-1.94.71-4.72-1.88-9.6 2.91-12.63h97.14c1.27 3.04 6.32 1.46 6.8 1.94.34.34-.44 1.87 0 2.91.35.84 1.82 1.26 1.94 1.94.33 1.85.42 8.18 0 9.71-.26.93-6.38 4.86-6.8 4.86H569.37Z"></path>
        <path d="M493.61 580.06c-.24-1.92-3.27-9.28-3.89-11.66-1.26-4.88-2.32-10.25-3.89-15.54-.32-1.09-3.58-2.8-3.89-3.89-2.92-10.15-11.26-18.97-17.48-27.2-4.41-5.82-21.26-16.8-28.17-20.4-7.27-3.79-12.03-5.66-19.43-7.77-2.47-.71-9.69-3.64-11.66-3.89-4.26-.53-9.58.72-13.6 0-.55-.1-2.04-3.1-5.83-1.94-10.9 3.31-23.89 2.53-34.97 5.83-5.51 3.99-11.88 6.41-18.46 7.77.51-2.91 4.61-4.62 5.83-6.8 2.13-3.82 11.18-11.03 16.51-14.57s17.09-9.77 23.31-11.66c5.47-1.66 10.17-1.13 15.54-1.94.73-.11 1.24-1.87 1.94-1.94 19.9-2.05 40.05 1.37 56.34 9.71 17.17 7.62 32.9 22.19 41.77 37.88 4.75 8.4 7.21 14.47 9.71 23.31 5.88 20.75 5.57 43.25-1.94 64.11l-7.77 12.63c-.89-10.19 1.23-22.12 0-32.06Z"></path>
    </g>
</svg>