<svg preserveAspectRatio="xMidYMid meet" data-bbox="60.72 100.02 944.42 99.67" viewBox="60.72 100.02 944.42 99.67" xmlns="http://www.w3.org/2000/svg" data-type="shape" role="presentation" aria-hidden="true" aria-label="">
    <g>
        <path d="M74.78 100.31v80.86h27.39v14.12H60.72V100.3h14.05Z"></path>
        <path d="M156.23 136.53h13.63v58.76h-13.63v-6.15c-5.59 5.23-11.6 7.84-18.04 7.84-8.12 0-14.84-2.94-20.15-8.81-5.27-5.99-7.9-13.47-7.9-22.44s2.63-16.15 7.9-22.02 11.86-8.81 19.79-8.81c6.84 0 12.97 2.81 18.4 8.44v-6.82Zm-32.22 29.2c0 5.63 1.51 10.22 4.52 13.75q4.65 5.37 11.7 5.37c5.03 0 9.09-1.73 12.19-5.19 3.1-3.58 4.65-8.12 4.65-13.63s-1.55-10.05-4.65-13.63c-3.1-3.5-7.12-5.25-12.07-5.25q-7.005 0-11.7 5.31c-3.1 3.58-4.64 8-4.64 13.27"></path>
        <path d="M200.57 100.31v43.04c5.43-5.63 11.58-8.44 18.46-8.44 7.92 0 14.52 2.96 19.79 8.87 5.27 5.87 7.9 13.19 7.9 21.96s-2.65 16.53-7.96 22.44c-5.27 5.87-11.92 8.81-19.97 8.81-6.8 0-12.87-2.61-18.22-7.84v6.15H187v-94.99zm32.27 66.02c0-5.63-1.53-10.22-4.58-13.75q-4.65-5.43-11.64-5.43c-4.99 0-9.05 1.75-12.19 5.25-3.1 3.46-4.65 7.96-4.65 13.51s1.53 10.28 4.58 13.7c3.06 3.5 7.08 5.25 12.07 5.25q7.065 0 11.7-5.25c3.14-3.54 4.71-7.96 4.71-13.27Z"></path>
        <path d="m266.45 136.53 15.38 33.54 16.59-33.67 16.71 33.67 15.2-33.54h15.2l-30.77 63.16-16.35-37.82-16.53 37.82-30.71-63.16h15.26Z"></path>
        <path d="M406.35 169.11h-42.11c.36 4.83 1.93 8.67 4.7 11.52 2.78 2.82 6.33 4.22 10.68 4.22 3.38 0 6.17-.81 8.39-2.41 2.17-1.61 4.64-4.59 7.42-8.93l11.46 6.39c-1.77 3.02-3.64 5.6-5.61 7.75q-2.955 3.225-6.33 5.31c-2.25 1.39-4.69 2.4-7.3 3.05-2.62.64-5.45.96-8.51.96-8.77 0-15.81-2.81-21.12-8.44-5.31-5.67-7.96-13.19-7.96-22.56s2.57-16.81 7.72-22.56c5.19-5.67 12.07-8.51 20.63-8.51s15.48 2.75 20.51 8.26c4.99 5.47 7.48 13.05 7.48 22.74l-.06 3.2Zm-13.94-11.1c-1.89-7.24-6.46-10.86-13.69-10.86q-2.475 0-4.65.75c-1.45.5-2.77 1.23-3.95 2.17-1.19.94-2.2 2.08-3.05 3.41-.84 1.33-1.49 2.84-1.93 4.52h27.27Z"></path>
        <path d="M464.5 136.53h13.63v58.76H464.5v-6.15c-5.59 5.23-11.6 7.84-18.04 7.84-8.12 0-14.84-2.94-20.15-8.81-5.27-5.99-7.9-13.47-7.9-22.44s2.63-16.15 7.9-22.02 11.86-8.81 19.79-8.81c6.84 0 12.97 2.81 18.4 8.44v-6.82Zm-32.21 29.2c0 5.63 1.51 10.22 4.52 13.75q4.65 5.37 11.7 5.37c5.03 0 9.09-1.73 12.19-5.19 3.1-3.58 4.65-8.12 4.65-13.63s-1.55-10.05-4.65-13.63c-3.1-3.5-7.12-5.25-12.07-5.25q-7.005 0-11.7 5.31c-3.1 3.58-4.64 8-4.64 13.27"></path>
        <path d="M495.27 136.53h13.57v5.25c2.49-2.61 4.71-4.4 6.64-5.37 1.97-1.01 4.3-1.51 7-1.51 3.58 0 7.32 1.17 11.22 3.5l-6.21 12.43c-2.57-1.85-5.09-2.77-7.54-2.77q-11.1 0-11.1 16.77v30.46h-13.57v-58.76Z"></path>
        <path d="m634.87 116.02-11.4 6.76c-2.13-3.7-4.16-6.11-6.09-7.24-2.01-1.29-4.61-1.93-7.78-1.93-3.9 0-7.14 1.11-9.71 3.32-2.57 2.17-3.86 4.91-3.86 8.2q0 6.825 10.14 10.98l9.29 3.8q11.34 4.59 16.59 11.19t5.25 16.2c0 8.57-2.86 15.65-8.56 21.24-5.75 5.63-12.89 8.44-21.42 8.44-8.09 0-14.76-2.39-20.03-7.18-5.19-4.79-8.43-11.52-9.71-20.21l14.24-3.14c.64 5.47 1.77 9.25 3.38 11.34 2.9 4.02 7.12 6.03 12.67 6.03 4.38 0 8.02-1.47 10.92-4.4 2.89-2.94 4.34-6.66 4.34-11.16 0-1.81-.25-3.47-.75-4.97-.5-1.51-1.29-2.9-2.35-4.16-1.07-1.27-2.44-2.45-4.13-3.56s-3.7-2.16-6.03-3.17l-8.99-3.74c-12.75-5.39-19.12-13.27-19.12-23.65 0-7 2.67-12.85 8.02-17.55 5.35-4.74 12.01-7.12 19.97-7.12 10.74 0 19.12 5.23 25.15 15.69Z"></path>
        <path d="M667.75 149.2v46.09h-13.57V149.2h-10.8v-12.67h10.8V115h13.57v21.54h10.56v12.67h-10.56Z"></path>
        <path d="M701.11 136.53v33.72c0 9.73 3.84 14.6 11.52 14.6s11.52-4.87 11.52-14.6v-33.72h13.57v34.02c0 4.71-.58 8.77-1.75 12.19-1.13 3.06-3.08 5.81-5.85 8.27-4.59 3.98-10.42 5.97-17.5 5.97s-12.85-1.99-17.43-5.97c-2.82-2.45-4.81-5.21-5.97-8.27-1.13-2.73-1.69-6.79-1.69-12.19v-34.02h13.57Z"></path>
        <path d="M798.17 100.31h13.63v94.99h-13.63v-6.15c-5.35 5.23-11.4 7.84-18.16 7.84-8.04 0-14.72-2.94-20.03-8.81-5.27-5.99-7.9-13.47-7.9-22.44s2.63-16.09 7.9-21.96c5.23-5.91 11.8-8.87 19.72-8.87 6.88 0 13.03 2.81 18.46 8.44v-43.04Zm-32.21 65.42c0 5.63 1.51 10.22 4.53 13.75q4.65 5.37 11.7 5.37c5.03 0 9.09-1.73 12.19-5.19 3.1-3.58 4.64-8.12 4.64-13.63s-1.55-10.05-4.64-13.63c-3.1-3.5-7.12-5.25-12.07-5.25-4.67 0-8.56 1.77-11.7 5.31-3.1 3.58-4.65 8-4.65 13.27"></path>
        <path d="M842.51 136.53v58.76h-13.57v-58.76z"></path>
        <path d="M856.93 165.49c0-8.49 3.04-15.7 9.11-21.66 6.07-5.95 13.47-8.93 22.2-8.93s16.21 3 22.32 8.99c6.03 5.99 9.05 13.35 9.05 22.08s-3.04 16.19-9.11 22.14c-6.11 5.91-13.61 8.87-22.5 8.87s-16.19-3.02-22.14-9.05c-5.95-5.95-8.93-13.43-8.93-22.44m13.88.24c0 5.87 1.57 10.52 4.71 13.94 3.22 3.46 7.46 5.19 12.73 5.19s9.55-1.71 12.73-5.13 4.76-7.98 4.76-13.7-1.59-10.27-4.76-13.69c-3.22-3.46-7.46-5.19-12.73-5.19s-9.39 1.73-12.61 5.19-4.83 7.92-4.83 13.39"></path>
        <path d="m968.12 146.54-11.22 5.97c-1.77-3.62-3.96-5.43-6.58-5.43-1.25 0-2.31.41-3.2 1.24-.89.82-1.33 1.88-1.33 3.17 0 2.25 2.62 4.48 7.84 6.69 7.2 3.1 12.05 5.95 14.54 8.57s3.74 6.13 3.74 10.56c0 5.67-2.09 10.42-6.27 14.24-4.06 3.62-8.97 5.43-14.72 5.43-9.85 0-16.83-4.81-20.93-14.42l11.58-5.37c1.61 2.81 2.84 4.6 3.68 5.37 1.65 1.53 3.62 2.29 5.91 2.29 4.59 0 6.88-2.09 6.88-6.27 0-2.41-1.77-4.67-5.31-6.76-1.37-.68-2.74-1.35-4.1-1.99-1.37-.64-2.75-1.31-4.16-1.99-3.94-1.93-6.72-3.86-8.33-5.79-2.05-2.45-3.08-5.61-3.08-9.47 0-5.11 1.75-9.33 5.25-12.67 3.58-3.34 7.92-5.01 13.03-5.01q11.28 0 16.77 11.64Z"></path>
        <path d="M826.89 109.05c0-2.37.86-4.42 2.59-6.15s3.8-2.59 6.21-2.59 4.54.86 6.27 2.59c1.73 1.69 2.59 3.76 2.59 6.21s-.87 4.54-2.59 6.27c-1.69 1.73-3.76 2.59-6.21 2.59s-4.55-.86-6.27-2.59c-1.73-1.73-2.59-3.84-2.59-6.34Z"></path>
        <path d="M979.54 103.36v13.79h-3.96v-13.79h-3.72v-3.34h11.4v3.34z"></path>
        <path d="m984.54 117.16 2.75-17.13h3.29l4.26 10.25 4.26-10.25h3.29l2.75 17.13h-3.96l-1.36-10.22-4.29 10.22h-1.39l-4.29-10.22-1.36 10.22h-3.96Z"></path>
    </g>
</svg>