<svg preserveAspectRatio="xMidYMid meet" data-bbox="83.285 123.135 877.873 818.348" viewBox="83.285 123.135 877.873 818.348" xmlns="http://www.w3.org/2000/svg" data-type="shape" role="presentation" aria-hidden="true" aria-label="">
    <g>
        <path d="M248.2 354.98c127.4-13.33 231.11 99.81 204.82 225.57-13.83 66.15-61.62 150.09-97.63 207.7-25.89 41.42-54.94 81.32-84.06 120.49-3.98 1.18-5.07-2.56-6.99-4.86-10.99-13.15-21.56-28.59-31.44-42.67-52.23-74.32-120.15-181.34-143.2-268.85-29.05-110.33 43.48-225.33 158.51-237.37Zm8.9 53.36c-132.38 16.35-165.66 190.37-48.59 251.95 106.19 55.86 227.73-50.93 187.45-163.74-19.45-54.48-81.04-95.36-138.86-88.22Z"></path>
        <path d="M850.88 443.33c-1.72-8.86-11.01-16.51-16.22-23.81-29.36-41.24-76.99-116.4-87.01-164.96-.72-3.51-3.8-23.97-3.63-26.05.86-10.64 6.17-29.79 10.45-40.18 21.48-52.21 82.71-78.38 135.8-58.59 46.65 17.39 74.92 64.11 70.42 113.63-4.23 46.52-56.85 131.2-84.71 170.23-7.43 10.41-14.84 22.25-25.09 29.74ZM835.1 156.32c-27.47 4.65-54.79 36.05-58.34 63.2-4.28 32.79 16 71.51 47.3 83.11 59.11 21.92 119.76-30.28 103.3-91.44-10.94-40.67-51.61-61.76-92.26-54.88Z"></path>
        <path d="M776.76 600.44c1.23 14.31-16.02 19.47-25.22 26.44-6.93-6.56-10.97-7.17-2.51-14.15 3.89-3.21 23.31-16.56 27.73-12.28Z"></path>
        <path d="M696.72 650.83c.14 4.36 1.09 7.4-2.96 10.38-4.4 3.24-26.24 13.77-29.65 10.37l.14-11.7c11.92-1.58 20.42-14.46 32.46-9.05Z"></path>
        <path d="M831.7 532.35c4.86-1.52 11.83 2.81 10.22 7.23-5.63 3.74-15.1 27.34-22.16 25.28-3.31-.97-5.36-6.27-4.17-10.09.46-1.5 14.8-22.01 16.12-22.42Z"></path>
        <path d="m804.93 567.83 7.4 4.45c1.8 6.5-9.58 16.29-14.81 20.75-3.42 2.92-4.66 5.74-10.38 4.43-3.22-3.15-6.11-3.97-2.99-8.91 4.24-6.7 15.65-13.81 20.78-20.73Z"></path>
        <path d="M730.84 624.39c2.45 2.55 8.53 6.23 7.38 10.12-.5 1.7-25.89 16.93-28.14 16.32-3.22-.86-5.45-6.66-4.37-10.29 1.12-3.75 20.89-11.72 25.13-16.16Z"></path>
        <path d="M572.21 719.01c1.31 6.69-.93 7.68-4.44 11.86-3.01 3.58-21 19.12-25.2 14.82-2.91-12.49 7.81-17.35 16.22-23.79 4.81-3.68 7.76-3.27 13.42-2.88Z"></path>
        <path d="M844.94 487.79c17.89-1.99 10.31 15.03 6.63 25.9-1.51 4.45-1.39 9.92-8.1 9.67-9.73-3.13 1-28.52 1.48-35.57Z"></path>
        <path d="m533.68 787.2-8.92-1.46c-8.31-5.3 2.79-36.4 10.39-34.12 5.98 1.8 3.83 7.65 3.01 11.89-1.53 7.89-5.3 15.38-4.48 23.69"></path>
        <path d="M578.14 867.23c-13.76 2.08-9.46-1.2-13.34-5.8-6.26-7.42-20.47-14.47-8.88-23.83l20.83 17.7 1.4 11.94Z"></path>
        <path d="M587.03 879.08c.66 12.93.45 26.97-10.37 35.57-14.74-9.31 2.04-21.07-1.47-35.57h11.85Z"></path>
        <path d="M533.67 938.37v-11.81c9.7 1.07 16.24-2.74 23.7-7.48 7.02-4.46 14.09 6.81 4.1 13-8.95 5.55-17.19 7.53-27.8 6.29"></path>
        <path d="m606.34 692.65 7.36 7.09-28.19 18.94-7.36-7.08c7.33-9.8 18.04-13.03 28.19-18.95"></path>
        <path d="M278.4 920.93c1.89 1.82 4.21 10.87 1.91 14.56-8.45 13.52-27.57 1.38-20.93-9.07.98-1.54 8.14-8.38 9.32-8.63 1.05-.22 9.33 2.78 9.7 3.13Z"></path>
        <path d="M645.22 671.94c7.66-1.99 13.62 5.17 7.05 10.03-6.84 5.06-18.13 7.54-25.25 13l-7.36-7.09c-.01-3.01 21.46-14.88 25.57-15.94Z"></path>
        <path d="M379.53 938.37h-34.09c-3.6-.43-2.8-10.77 5.83-11.95 10.79-1.47 31.74-2.94 28.25 11.95Z"></path>
        <path d="M426.96 938.37h-34.09c-3.6-.43-2.8-10.77 5.83-11.95 10.79-1.47 31.74-2.94 28.25 11.95Z"></path>
        <path d="M486.24 938.37v-11.85c7.37 1.23 33.06-3.52 35.57 4.45 3.54 11.21-29.51 6.63-35.57 7.4"></path>
        <path d="M548.5 831.66c-4.37.13-7.39 1.1-10.38-2.96-3.18-4.33-13.77-26.14-10.37-29.64 4.37-.13 7.39-1.1 10.38 2.96 3.18 4.33 13.77 26.14 10.37 29.64"></path>
        <path d="M332.1 938.37c-6.08-.77-39.1 3.81-35.57-7.4 1.88-5.96 25.81-5.69 30.91-4.24s5.25 7.49 4.66 11.64"></path>
        <path d="m438.82 938.37 1.45-8.92c3.08-4.72 32.03-5.12 34.12 1.52 3.54 11.21-29.49 6.63-35.57 7.4"></path>
        <path d="M845.05 458.25c36.74-3.76 11.89 36.54-1.68 14.8-3.76-6.02 1.48-9.24 1.68-14.8"></path>
    </g>
</svg>